<?xml version="1.0" encoding="utf-8"?>
<!-- Generator: Adobe Illustrator 15.1.0, SVG Export Plug-In . SVG Version: 6.00 Build 0)  -->
<!DOCTYPE svg PUBLIC "-//W3C//DTD SVG 1.1//EN" "http://www.w3.org/Graphics/SVG/1.1/DTD/svg11.dtd">
<svg version="1.1" id="Layer_1" xmlns="http://www.w3.org/2000/svg" xmlns:xlink="http://www.w3.org/1999/xlink" x="0px" y="0px"
	 width="200px" height="200px" viewBox="0 0 200 200" enable-background="new 0 0 200 200" xml:space="preserve">
<g>
	<path fill-rule="evenodd" clip-rule="evenodd" fill="#0065D4" d="M145.537,19.47c-33-18.626-72.973-16.843-103.379,6.408
		c-30.553,23.364-48.922,61.09-31.907,99.428c1.58,3.56,3.402,6.953,5.375,10.221c3.995,10.877,10.05,21.162,17.909,30.267
		c23.802,27.577,63.767,30.653,96.517,25.061c38.017-6.49,61.408-38.343,65.69-76.982C200.022,75.26,176.896,37.172,145.537,19.47z"
		/>
	<path fill-rule="evenodd" clip-rule="evenodd" fill="#FFFFFF" d="M84.812,107.996v51.897l26.035,0.202l-0.101-52.25l16.081-0.101
		l4.491-22.527H110.73V68.582c0-2.241,0.891-6.249,4.523-6.249l11.993,0.203l-0.406-22.529l-23.737-0.1
		c-8.122,0-18.28,10.408-18.28,21.037l-0.203,24.152L68.68,85.399v22.505L84.812,107.996z"/>
</g>
</svg>
