<?xml version="1.0" encoding="utf-8"?>
<!-- Generator: Adobe Illustrator 15.1.0, SVG Export Plug-In . SVG Version: 6.00 Build 0)  -->
<!DOCTYPE svg PUBLIC "-//W3C//DTD SVG 1.1//EN" "http://www.w3.org/Graphics/SVG/1.1/DTD/svg11.dtd">
<svg version="1.1" id="Layer_1" xmlns="http://www.w3.org/2000/svg" xmlns:xlink="http://www.w3.org/1999/xlink" x="0px" y="0px"
	 width="200px" height="200px" viewBox="0 0 200 200" enable-background="new 0 0 200 200" xml:space="preserve">
<g>
	<path fill-rule="evenodd" clip-rule="evenodd" fill="#29ABE2" d="M161.722,28.86C136.833,6.081,98.792-2.228,67.717,11.316
		C56.591,16.165,47.39,23.614,39.822,32.599C11.316,53.647-4.881,87.715,12.689,125.72c2.79,14.292,9.381,27.678,20.228,38.826
		c8.174,8.401,18.146,14.346,28.966,18.665c12.902,6.449,27.475,9.938,42.367,10.143c4.826,0.658,9.599,1.223,14.237,1.73
		c7.586,0.831,14.616-2.258,20.064-7.3c5.422-1.908,10.752-4.279,15.902-7.203C209.426,149.377,204.112,67.663,161.722,28.86z"/>
	<path fill="#FFFFFF" d="M151.869,67.978c-3.816,1.684-7.922,2.819-12.224,3.336c4.395-2.623,7.767-6.774,9.356-11.717
		c-4.118,2.428-8.665,4.19-13.518,5.138c-3.879-4.117-9.41-6.69-15.535-6.69c-11.753,0-21.282,9.482-21.282,21.185
		c0,1.662,0.187,3.274,0.553,4.826c-17.688-0.882-33.369-9.317-43.866-22.133c-1.832,3.128-2.877,6.768-2.877,10.65
		c0,7.349,3.76,13.834,9.465,17.63c-3.49-0.11-6.77-1.065-9.638-2.649c0,0.088,0,0.176,0,0.266c0,10.265,7.333,18.821,17.071,20.773
		c-1.786,0.482-3.661,0.743-5.605,0.743c-1.37,0-2.707-0.132-4.005-0.383c2.707,8.414,10.569,14.539,19.881,14.709
		c-7.285,5.682-16.46,9.068-26.435,9.068c-1.715,0-3.411-0.099-5.078-0.292c9.417,6.009,20.603,9.517,32.625,9.517
		c39.149,0,60.555-32.28,60.555-60.273c0-0.918-0.025-1.828-0.064-2.736c4.162-2.99,7.768-6.718,10.622-10.964V67.978z"/>
</g>
</svg>
